<svg xmlns="http://www.w3.org/2000/svg" viewBox="0 0 200 200"><defs><clipPath id="b"><path fill="#00c17f" d="M0 100C0 25 25 0 100 0s100 25 100 100-25 100-100 100S0 175 0 100"/></clipPath><clipPath id="a"><path d="M0 0h200v200H0z"/></clipPath></defs><g clip-path="url(#a)"><path fill="#e33223" d="M0 100C0 25 25 0 100 0s100 25 100 100-25 100-100 100S0 175 0 100"/><g clip-path="url(#b)"><path fill="#c8281a" d="m80.75 160.49 75.26 84.39 86.49-82.84-114.22-114.3 2.16 24.75-20.23-24.75-52.84 60.97"/><path fill="#fff" d="M81.12 160.76s-10.88-17.12-13.2-33.78C65 106.02 78.14 90.72 96.27 87.14c30.38-5.61 23.06-41.5 1.65-47.14S42.5 52.19 47.19 99.19s33.93 61.57 33.93 61.57Z"/><path fill="#fff" d="M117.12 39.11s10.87 17.13 13.2 33.8c2.91 20.95-10.22 36.25-28.35 39.82-30.39 5.62-23.06 41.51-1.65 47.15s55.42-12.2 50.72-59.2-33.92-61.57-33.92-61.57Z"/></g></g></svg>