<svg xmlns="http://www.w3.org/2000/svg" viewBox="0 0 256 250"><path d="M128 0C57.32 0 0 57.3 0 128c0 56.56 36.68 104.54 87.53 121.46 6.4 1.19 8.75-2.78 8.75-6.16 0-3.05-.12-13.13-.17-23.83-35.61 7.75-43.13-15.1-43.13-15.1-5.82-14.8-14.21-18.73-14.21-18.73-11.61-7.94.88-7.78.88-7.78 12.85.9 19.62 13.19 19.62 13.19 11.41 19.57 29.94 13.91 37.25 10.64 1.14-8.27 4.46-13.92 8.12-17.12-28.43-3.23-58.32-14.2-58.32-63.25 0-13.98 5-25.4 13.2-34.36-1.34-3.23-5.72-16.24 1.23-33.88 0 0 10.75-3.44 35.21 13.12A122.7 122.7 0 0 1 128 61.9a123 123 0 0 1 32.07 4.3c24.43-16.56 35.16-13.12 35.16-13.12 6.97 17.64 2.59 30.65 1.26 33.88 8.2 8.96 13.17 20.38 13.17 34.36 0 49.16-29.94 59.98-58.45 63.15 4.6 3.97 8.69 11.76 8.69 23.7 0 17.13-.15 30.92-.15 35.13 0 3.41 2.3 7.4 8.79 6.14C219.37 232.5 256 184.54 256 128 256 57.3 198.7 0 128 0Z"/></svg>