<svg xmlns="http://www.w3.org/2000/svg" viewBox="0 0 106.669 123.516"><path d="M41.038 105.2A53.427 53.427 0 0 1 4.37 74.483l-.018-.043-.043-.1-.044-.1-.016-.04A52.9 52.9 0 0 1 0 53.483V52.945A52.965 52.965 0 0 1 4.189 32.56a53.132 53.132 0 0 1 10.643-16.146q.733-.764 1.495-1.5a53.071 53.071 0 0 1 14.556-9.983q1.876-.871 3.825-1.6l.1-.037.027-.01A52.773 52.773 0 0 1 49.693.116h.123a53.969 53.969 0 0 1 3.495-.113q1.572 0 3.123.09a52.765 52.765 0 0 1 16.86 3.782l.029.011.077.032.109.045.012.005a53.325 53.325 0 0 1 33.1 49.346s4.616 65.894-76.812 70.2c.001.002 10.743-6.221 11.229-18.314Z"/></svg>